<svg xmlns="http://www.w3.org/2000/svg" viewBox="0 0 512 512">
  <style>
    :root {
      color: #0F1E2E; /* 라이트 모드 */
    }
    @media (prefers-color-scheme: dark) {
      :root {
        color: #E6EDF3; /* 다크 모드 */
      }
    }
  </style>

  <path d="M 349 153 L 344 156 L 342 163 L 342 182 L 346 198 L 356 216 L 385 249 L 391 262 L 386 265 L 366 263 L 325 247 L 317 250 L 316 257 L 327 265 L 357 276 L 377 280 L 395 279 L 397 304 L 387 338 L 380 347 L 349 333 L 330 330 L 301 331 L 261 342 L 255 350 L 254 359 L 262 371 L 297 381 L 321 394 L 342 416 L 348 435 L 356 438 L 362 432 L 359 417 L 353 405 L 339 389 L 305 368 L 269 357 L 273 353 L 296 347 L 330 345 L 356 351 L 379 365 L 386 366 L 394 357 L 405 334 L 412 304 L 412 288 L 406 257 L 398 241 L 363 199 L 357 181 L 358 159 L 356 155 Z
           M 303 73 L 295 77 L 296 102 L 283 121 L 284 129 L 290 132 L 303 122 L 311 104 L 310 81 Z
           M 275 65 L 267 71 L 268 96 L 255 116 L 262 124 L 267 123 L 275 115 L 284 94 L 283 74 Z
           M 251 58 L 244 58 L 240 62 L 241 87 L 228 106 L 230 114 L 234 116 L 247 108 L 255 93 L 257 74 Z
           M 129 43 L 123 48 L 123 63 L 126 67 L 132 68 L 137 64 L 138 50 L 134 44 Z
           M 452 11 L 437 10 L 433 16 L 436 23 L 473 34 L 493 46 L 496 52 L 487 61 L 441 84 L 424 102 L 418 118 L 457 160 L 477 201 L 483 228 L 484 260 L 480 287 L 471 317 L 493 343 L 496 356 L 489 360 L 480 360 L 449 353 L 413 388 L 411 418 L 404 444 L 391 466 L 364 490 L 353 496 L 349 495 L 359 468 L 360 457 L 355 453 L 347 455 L 334 491 L 336 503 L 346 511 L 357 511 L 375 501 L 403 475 L 413 460 L 422 438 L 426 418 L 426 397 L 454 369 L 479 375 L 495 374 L 506 368 L 511 359 L 511 347 L 507 337 L 488 314 L 499 258 L 498 228 L 492 199 L 473 157 L 457 135 L 435 113 L 459 90 L 499 71 L 508 62 L 511 47 L 508 40 L 494 28 Z
           M 0 43 L 20 84 L 37 108 L 58 130 L 64 130 L 79 119 L 99 110 L 119 106 L 141 107 L 99 132 L 85 146 L 86 155 L 122 178 L 151 191 L 173 230 L 188 250 L 209 266 L 223 267 L 232 260 L 235 252 L 236 216 L 264 220 L 294 247 L 300 247 L 305 240 L 266 197 L 255 175 L 249 152 L 240 149 L 236 152 L 235 159 L 251 203 L 191 190 L 128 164 L 104 149 L 116 138 L 144 122 L 162 116 L 185 113 L 189 109 L 188 101 L 157 92 L 118 91 L 88 98 L 61 112 L 39 85 L 17 46 L 14 35 L 19 22 L 35 14 L 230 16 L 285 29 L 317 43 L 350 65 L 357 65 L 361 61 L 360 54 L 338 36 L 379 24 L 414 21 L 418 17 L 418 11 L 414 7 L 377 9 L 352 15 L 320 28 L 268 8 L 221 0 L 27 0 L 14 6 L 4 17 L 0 27 Z
           M 175 200 L 220 213 L 221 246 L 218 252 L 208 248 L 197 237 L 178 209 Z"
        fill="currentColor"
        fill-rule="evenodd"/>
</svg>
